<svg width="74" height="12" viewBox="0 0 74 12" fill="none" xmlns="http://www.w3.org/2000/svg">
<path d="M3.864 11.744L2.008 10.4L4.76 6.752L0.696 5.376L1.4 3.2L5.496 4.544V0.159998H7.8V4.544L11.896 3.2L12.6 5.376L8.536 6.752L11.288 10.4L9.432 11.744L6.648 8.096L3.864 11.744ZM19.2078 11.744L17.3518 10.4L20.1038 6.752L16.0398 5.376L16.7438 3.2L20.8398 4.544V0.159998H23.1438V4.544L27.2398 3.2L27.9438 5.376L23.8798 6.752L26.6318 10.4L24.7758 11.744L21.9918 8.096L19.2078 11.744ZM34.5515 11.744L32.6955 10.4L35.4475 6.752L31.3835 5.376L32.0875 3.2L36.1835 4.544V0.159998H38.4875V4.544L42.5835 3.2L43.2875 5.376L39.2235 6.752L41.9755 10.4L40.1195 11.744L37.3355 8.096L34.5515 11.744ZM49.8953 11.744L48.0393 10.4L50.7913 6.752L46.7273 5.376L47.4313 3.2L51.5273 4.544V0.159998H53.8313V4.544L57.9273 3.2L58.6313 5.376L54.5673 6.752L57.3193 10.4L55.4633 11.744L52.6793 8.096L49.8953 11.744ZM65.239 11.744L63.383 10.4L66.135 6.752L62.071 5.376L62.775 3.2L66.871 4.544V0.159998H69.175V4.544L73.271 3.2L73.975 5.376L69.911 6.752L72.663 10.4L70.807 11.744L68.023 8.096L65.239 11.744Z" fill="#D2E0D9"/>
</svg>
