<svg width="74" height="12" viewBox="0 0 74 12" fill="none" xmlns="http://www.w3.org/2000/svg">
<path d="M3.864 11.744L2.008 10.4L4.76 6.752L0.696 5.376L1.4 3.2L5.496 4.544V0.159998H7.8V4.544L11.896 3.2L12.6 5.376L8.536 6.752L11.288 10.4L9.432 11.744L6.648 8.096L3.864 11.744ZM19.1765 11.744L17.3205 10.4L20.0725 6.752L16.0085 5.376L16.7125 3.2L20.8085 4.544V0.159998H23.1125V4.544L27.2085 3.2L27.9125 5.376L23.8485 6.752L26.6005 10.4L24.7445 11.744L21.9605 8.096L19.1765 11.744ZM34.489 11.744L32.633 10.4L35.385 6.752L31.321 5.376L32.025 3.2L36.121 4.544V0.159998H38.425V4.544L42.521 3.2L43.225 5.376L39.161 6.752L41.913 10.4L40.057 11.744L37.273 8.096L34.489 11.744ZM49.8015 11.744L47.9455 10.4L50.6975 6.752L46.6335 5.376L47.3375 3.2L51.4335 4.544V0.159998H53.7375V4.544L57.8335 3.2L58.5375 5.376L54.4735 6.752L57.2255 10.4L55.3695 11.744L52.5855 8.096L49.8015 11.744ZM65.114 11.744L63.258 10.4L66.01 6.752L61.946 5.376L62.65 3.2L66.746 4.544V0.159998H69.05V4.544L73.146 3.2L73.85 5.376L69.786 6.752L72.538 10.4L70.682 11.744L67.898 8.096L65.114 11.744Z" fill="#253B2F"/>
</svg>
